<mxfile host="65bd71144e" modified="2020-11-14T23:15:33.438Z" agent="5.0 (Windows NT 10.0; Win64; x64) AppleWebKit/537.36 (KHTML, like Gecko) Code/1.51.1 Chrome/83.0.4103.122 Electron/9.3.3 Safari/537.36" etag="x4USMmr-fc-NytCwt5zI" version="13.6.5">
    <diagram id="3PXFVOjQVjK1tJpNkNgE" name="Page-1">
        <mxGraphModel dx="1765" dy="506" grid="1" gridSize="10" guides="1" tooltips="1" connect="1" arrows="1" fold="1" page="1" pageScale="1" pageWidth="850" pageHeight="1100" math="0" shadow="0">
            <root>
                <mxCell id="0"/>
                <mxCell id="1" parent="0"/>
                <mxCell id="7" value="«interface»&lt;br&gt;&lt;b&gt;IManagementManager&lt;/b&gt;" style="html=1;" parent="1" vertex="1">
                    <mxGeometry x="285" y="210" width="140" height="50" as="geometry"/>
                </mxCell>
                <mxCell id="25" value="" style="endArrow=block;endSize=16;endFill=0;html=1;exitX=0.5;exitY=0;exitDx=0;exitDy=0;entryX=0.5;entryY=1;entryDx=0;entryDy=0;" parent="1" source="8" target="7" edge="1">
                    <mxGeometry width="160" relative="1" as="geometry">
                        <mxPoint x="350" y="700" as="sourcePoint"/>
                        <mxPoint x="510" y="700" as="targetPoint"/>
                    </mxGeometry>
                </mxCell>
                <mxCell id="29" value="1" style="endArrow=diamondThin;endFill=1;endSize=24;html=1;entryX=0.8;entryY=1.014;entryDx=0;entryDy=0;entryPerimeter=0;exitX=0.5;exitY=0;exitDx=0;exitDy=0;" parent="1" source="65" target="5" edge="1">
                    <mxGeometry width="160" relative="1" as="geometry">
                        <mxPoint x="660" y="440" as="sourcePoint"/>
                        <mxPoint x="510" y="400" as="targetPoint"/>
                        <Array as="points"/>
                    </mxGeometry>
                </mxCell>
                <mxCell id="30" value="1" style="endArrow=diamondThin;endFill=1;endSize=24;html=1;entryX=0.17;entryY=1.028;entryDx=0;entryDy=0;exitX=0.5;exitY=0;exitDx=0;exitDy=0;entryPerimeter=0;" parent="1" source="7" target="5" edge="1">
                    <mxGeometry width="160" relative="1" as="geometry">
                        <mxPoint x="350" y="400" as="sourcePoint"/>
                        <mxPoint x="510" y="400" as="targetPoint"/>
                    </mxGeometry>
                </mxCell>
                <mxCell id="2" value="ManagementSystem" style="swimlane;fontStyle=1;align=center;verticalAlign=top;childLayout=stackLayout;horizontal=1;startSize=26;horizontalStack=0;resizeParent=1;resizeParentMax=0;resizeLast=0;collapsible=1;marginBottom=0;" parent="1" vertex="1">
                    <mxGeometry x="320" width="200" height="106" as="geometry">
                        <mxRectangle x="320" y="80" width="150" height="26" as="alternateBounds"/>
                    </mxGeometry>
                </mxCell>
                <mxCell id="4" value="" style="line;strokeWidth=1;fillColor=none;align=left;verticalAlign=middle;spacingTop=-1;spacingLeft=3;spacingRight=3;rotatable=0;labelPosition=right;points=[];portConstraint=eastwest;" parent="2" vertex="1">
                    <mxGeometry y="26" width="200" height="8" as="geometry"/>
                </mxCell>
                <mxCell id="5" value="-config()&#10;" style="text;strokeColor=none;fillColor=none;align=left;verticalAlign=top;spacingLeft=4;spacingRight=4;overflow=hidden;rotatable=0;points=[[0,0.5],[1,0.5]];portConstraint=eastwest;" parent="2" vertex="1">
                    <mxGeometry y="34" width="200" height="72" as="geometry"/>
                </mxCell>
                <mxCell id="41" value="Configuration" style="html=1;" parent="1" vertex="1">
                    <mxGeometry x="800" y="60" width="110" height="50" as="geometry"/>
                </mxCell>
                <mxCell id="42" value="«interface»&lt;br&gt;&lt;b&gt;IConfigurationParser&lt;/b&gt;" style="html=1;" parent="1" vertex="1">
                    <mxGeometry x="785" y="180" width="140" height="50" as="geometry"/>
                </mxCell>
                <mxCell id="43" value="XmlConfigurationParser" style="html=1;" parent="1" vertex="1">
                    <mxGeometry x="770" y="290" width="170" height="50" as="geometry"/>
                </mxCell>
                <mxCell id="44" value="" style="endArrow=diamondThin;endFill=1;endSize=24;html=1;exitX=0;exitY=0.5;exitDx=0;exitDy=0;entryX=1.015;entryY=1;entryDx=0;entryDy=0;entryPerimeter=0;" parent="1" source="41" edge="1">
                    <mxGeometry width="160" relative="1" as="geometry">
                        <mxPoint x="610" y="240" as="sourcePoint"/>
                        <mxPoint x="523" y="90" as="targetPoint"/>
                    </mxGeometry>
                </mxCell>
                <mxCell id="51" value="" style="endArrow=block;dashed=1;endFill=0;endSize=12;html=1;exitX=0.461;exitY=-0.004;exitDx=0;exitDy=0;exitPerimeter=0;entryX=0.472;entryY=1.023;entryDx=0;entryDy=0;entryPerimeter=0;" parent="1" source="43" target="42" edge="1">
                    <mxGeometry width="160" relative="1" as="geometry">
                        <mxPoint x="790" y="240" as="sourcePoint"/>
                        <mxPoint x="950" y="240" as="targetPoint"/>
                    </mxGeometry>
                </mxCell>
                <mxCell id="52" value="" style="endArrow=diamondThin;endFill=1;endSize=24;html=1;entryX=0.5;entryY=0;entryDx=0;entryDy=0;exitX=0.5;exitY=1;exitDx=0;exitDy=0;" parent="1" source="41" target="42" edge="1">
                    <mxGeometry width="160" relative="1" as="geometry">
                        <mxPoint x="836" y="104" as="sourcePoint"/>
                        <mxPoint x="950" y="170" as="targetPoint"/>
                    </mxGeometry>
                </mxCell>
                <mxCell id="53" value="" style="endArrow=open;endSize=12;dashed=1;html=1;entryX=1.01;entryY=0.306;entryDx=0;entryDy=0;entryPerimeter=0;exitX=0;exitY=0.5;exitDx=0;exitDy=0;" parent="1" source="42" target="5" edge="1">
                    <mxGeometry width="160" relative="1" as="geometry">
                        <mxPoint x="660" y="180" as="sourcePoint"/>
                        <mxPoint x="840" y="180" as="targetPoint"/>
                    </mxGeometry>
                </mxCell>
                <mxCell id="54" value="&lt;p style=&quot;margin: 0px ; margin-top: 4px ; text-align: center&quot;&gt;&lt;b&gt;Client&lt;/b&gt;&lt;/p&gt;&lt;hr size=&quot;1&quot;&gt;&lt;p style=&quot;margin: 0px ; margin-left: 4px&quot;&gt;+ _socket: Socket&lt;/p&gt;&lt;p style=&quot;margin: 0px ; margin-left: 4px&quot;&gt;+Id: Int&lt;/p&gt;&lt;hr size=&quot;1&quot;&gt;&lt;p style=&quot;margin: 0px ; margin-left: 4px&quot;&gt;+ SendData()&lt;/p&gt;" style="verticalAlign=top;align=left;overflow=fill;fontSize=12;fontFamily=Helvetica;html=1;" vertex="1" parent="1">
                    <mxGeometry x="-280" y="440" width="160" height="90" as="geometry"/>
                </mxCell>
                <mxCell id="55" value="&lt;p style=&quot;margin: 0px ; margin-top: 4px ; text-align: center&quot;&gt;&lt;b&gt;ReceiverServer&lt;/b&gt;&lt;/p&gt;&lt;hr size=&quot;1&quot;&gt;&lt;p style=&quot;margin: 0px ; margin-left: 4px&quot;&gt;+_buffer: []bytes&lt;/p&gt;&lt;p style=&quot;margin: 0px ; margin-left: 4px&quot;&gt;+_receiveSocket: Socket&lt;/p&gt;&lt;p style=&quot;margin: 0px ; margin-left: 4px&quot;&gt;+_clientId: int&lt;/p&gt;&lt;hr size=&quot;1&quot;&gt;&lt;p style=&quot;margin: 0px ; margin-left: 4px&quot;&gt;+StartReceiving()&lt;/p&gt;&lt;p style=&quot;margin: 0px ; margin-left: 4px&quot;&gt;-ReceiveCallback()&lt;/p&gt;&lt;p style=&quot;margin: 0px ; margin-left: 4px&quot;&gt;-Disconnect()&lt;/p&gt;&lt;p style=&quot;margin: 0px ; margin-left: 4px&quot;&gt;&lt;br&gt;&lt;/p&gt;" style="verticalAlign=top;align=left;overflow=fill;fontSize=12;fontFamily=Helvetica;html=1;" vertex="1" parent="1">
                    <mxGeometry x="-160" y="600" width="160" height="140" as="geometry"/>
                </mxCell>
                <mxCell id="56" value="" style="endArrow=diamondThin;endFill=1;endSize=24;html=1;exitX=0.5;exitY=0;exitDx=0;exitDy=0;" edge="1" parent="1" source="55" target="54">
                    <mxGeometry width="160" relative="1" as="geometry">
                        <mxPoint x="430" y="760" as="sourcePoint"/>
                        <mxPoint x="590" y="760" as="targetPoint"/>
                    </mxGeometry>
                </mxCell>
                <mxCell id="57" value="&lt;p style=&quot;margin: 0px ; margin-top: 4px ; text-align: center&quot;&gt;&lt;b&gt;SenderServer&lt;/b&gt;&lt;/p&gt;&lt;hr size=&quot;1&quot;&gt;&lt;p style=&quot;margin: 0px ; margin-left: 4px&quot;&gt;-_SendSocket: Socket&lt;/p&gt;&lt;hr size=&quot;1&quot;&gt;&lt;p style=&quot;margin: 0px ; margin-left: 4px&quot;&gt;+Send(string)&lt;/p&gt;" style="verticalAlign=top;align=left;overflow=fill;fontSize=12;fontFamily=Helvetica;html=1;" vertex="1" parent="1">
                    <mxGeometry x="-400" y="600" width="160" height="90" as="geometry"/>
                </mxCell>
                <mxCell id="58" value="" style="endArrow=diamondThin;endFill=1;endSize=24;html=1;entryX=0.25;entryY=1;entryDx=0;entryDy=0;exitX=0.5;exitY=0;exitDx=0;exitDy=0;" edge="1" parent="1" source="57" target="54">
                    <mxGeometry width="160" relative="1" as="geometry">
                        <mxPoint x="430" y="960" as="sourcePoint"/>
                        <mxPoint x="590" y="960" as="targetPoint"/>
                    </mxGeometry>
                </mxCell>
                <mxCell id="59" value="&lt;p style=&quot;margin: 0px ; margin-top: 4px ; text-align: center&quot;&gt;«static»&lt;b&gt;&lt;br&gt;&lt;/b&gt;&lt;/p&gt;&lt;p style=&quot;margin: 0px ; margin-top: 4px ; text-align: center&quot;&gt;&lt;b&gt;ClientController&lt;/b&gt;&lt;/p&gt;&lt;hr size=&quot;1&quot;&gt;&lt;p style=&quot;margin: 0px ; margin-left: 4px&quot;&gt;&lt;/p&gt;&lt;p style=&quot;margin: 0px ; margin-left: 4px&quot;&gt;+AddClient()&lt;/p&gt;&lt;p style=&quot;margin: 0px ; margin-left: 4px&quot;&gt;+RemoveClient()&lt;/p&gt;&lt;p style=&quot;margin: 0px ; margin-left: 4px&quot;&gt;+SendData&lt;/p&gt;" style="verticalAlign=top;align=left;overflow=fill;fontSize=12;fontFamily=Helvetica;html=1;" vertex="1" parent="1">
                    <mxGeometry x="-270" y="180" width="160" height="100" as="geometry"/>
                </mxCell>
                <mxCell id="61" value="" style="endArrow=open;endFill=1;endSize=12;html=1;exitX=0.5;exitY=0;exitDx=0;exitDy=0;entryX=0.5;entryY=1;entryDx=0;entryDy=0;" edge="1" parent="1" source="54" target="59">
                    <mxGeometry width="160" relative="1" as="geometry">
                        <mxPoint x="-60" y="380" as="sourcePoint"/>
                        <mxPoint x="100" y="380" as="targetPoint"/>
                    </mxGeometry>
                </mxCell>
                <mxCell id="62" value="0..*" style="edgeLabel;html=1;align=center;verticalAlign=middle;resizable=0;points=[];" vertex="1" connectable="0" parent="61">
                    <mxGeometry x="-0.0447" y="1" relative="1" as="geometry">
                        <mxPoint as="offset"/>
                    </mxGeometry>
                </mxCell>
                <mxCell id="63" value="" style="endArrow=diamondThin;endFill=1;endSize=24;html=1;entryX=0;entryY=0.5;entryDx=0;entryDy=0;exitX=1;exitY=0.5;exitDx=0;exitDy=0;" edge="1" parent="1" source="59" target="5">
                    <mxGeometry width="160" relative="1" as="geometry">
                        <mxPoint x="-90" y="260" as="sourcePoint"/>
                        <mxPoint x="70" y="260" as="targetPoint"/>
                    </mxGeometry>
                </mxCell>
                <mxCell id="65" value="&lt;p style=&quot;margin: 0px ; margin-top: 4px ; text-align: center&quot;&gt;«static»&lt;br&gt;&lt;/p&gt;&lt;p style=&quot;margin: 0px ; margin-top: 4px ; text-align: center&quot;&gt;UserInterface&lt;/p&gt;&lt;hr size=&quot;1&quot;&gt;&lt;p style=&quot;margin: 0px ; margin-left: 4px&quot;&gt;&lt;br&gt;&lt;/p&gt;&lt;hr size=&quot;1&quot;&gt;&lt;p style=&quot;margin: 0px ; margin-left: 4px&quot;&gt;+Start()&lt;/p&gt;&lt;p style=&quot;margin: 0px ; margin-left: 4px&quot;&gt;-SendMessage()&lt;/p&gt;&lt;p style=&quot;margin: 0px ; margin-left: 4px&quot;&gt;+WriteLine()&lt;/p&gt;" style="verticalAlign=top;align=left;overflow=fill;fontSize=12;fontFamily=Helvetica;html=1;" vertex="1" parent="1">
                    <mxGeometry x="670" y="680" width="160" height="130" as="geometry"/>
                </mxCell>
                <mxCell id="66" value="" style="endArrow=open;endSize=12;dashed=1;html=1;exitX=1;exitY=0.5;exitDx=0;exitDy=0;entryX=0;entryY=0.5;entryDx=0;entryDy=0;" edge="1" parent="1" source="55" target="65">
                    <mxGeometry width="160" relative="1" as="geometry">
                        <mxPoint x="280" y="720" as="sourcePoint"/>
                        <mxPoint x="440" y="720" as="targetPoint"/>
                    </mxGeometry>
                </mxCell>
                <mxCell id="21" value="Message" style="swimlane;fontStyle=1;align=center;verticalAlign=top;childLayout=stackLayout;horizontal=1;startSize=26;horizontalStack=0;resizeParent=1;resizeParentMax=0;resizeLast=0;collapsible=1;marginBottom=0;" parent="1" vertex="1">
                    <mxGeometry x="240" y="870" width="160" height="88" as="geometry"/>
                </mxCell>
                <mxCell id="22" value="-destAddress: IPAddress&#10;-Content: String&#10;" style="text;strokeColor=none;fillColor=none;align=left;verticalAlign=top;spacingLeft=4;spacingRight=4;overflow=hidden;rotatable=0;points=[[0,0.5],[1,0.5]];portConstraint=eastwest;" parent="21" vertex="1">
                    <mxGeometry y="26" width="160" height="54" as="geometry"/>
                </mxCell>
                <mxCell id="23" value="" style="line;strokeWidth=1;fillColor=none;align=left;verticalAlign=middle;spacingTop=-1;spacingLeft=3;spacingRight=3;rotatable=0;labelPosition=right;points=[];portConstraint=eastwest;" parent="21" vertex="1">
                    <mxGeometry y="80" width="160" height="8" as="geometry"/>
                </mxCell>
                <mxCell id="68" value="" style="endArrow=open;endSize=12;dashed=1;html=1;entryX=0;entryY=0;entryDx=0;entryDy=0;exitX=1;exitY=0.5;exitDx=0;exitDy=0;" edge="1" parent="1" source="9" target="65">
                    <mxGeometry x="-0.0024" y="-24" width="160" relative="1" as="geometry">
                        <mxPoint x="300" y="523" as="sourcePoint"/>
                        <mxPoint x="330" y="430" as="targetPoint"/>
                        <mxPoint as="offset"/>
                    </mxGeometry>
                </mxCell>
                <mxCell id="8" value="ManagementManager" style="swimlane;fontStyle=1;align=center;verticalAlign=top;childLayout=stackLayout;horizontal=1;startSize=26;horizontalStack=0;resizeParent=1;resizeParentMax=0;resizeLast=0;collapsible=1;marginBottom=0;" parent="1" vertex="1">
                    <mxGeometry x="250" y="340" width="210" height="160" as="geometry"/>
                </mxCell>
                <mxCell id="9" value="-ListenerSocket: Socket&#10;-Port: int" style="text;strokeColor=none;fillColor=none;align=left;verticalAlign=top;spacingLeft=4;spacingRight=4;overflow=hidden;rotatable=0;points=[[0,0.5],[1,0.5]];portConstraint=eastwest;" parent="8" vertex="1">
                    <mxGeometry y="26" width="210" height="54" as="geometry"/>
                </mxCell>
                <mxCell id="10" value="" style="line;strokeWidth=1;fillColor=none;align=left;verticalAlign=middle;spacingTop=-1;spacingLeft=3;spacingRight=3;rotatable=0;labelPosition=right;points=[];portConstraint=eastwest;" parent="8" vertex="1">
                    <mxGeometry y="80" width="210" height="8" as="geometry"/>
                </mxCell>
                <mxCell id="11" value="+StartSever()&#10;-AcceptCallback()" style="text;strokeColor=none;fillColor=none;align=left;verticalAlign=top;spacingLeft=4;spacingRight=4;overflow=hidden;rotatable=0;points=[[0,0.5],[1,0.5]];portConstraint=eastwest;" parent="8" vertex="1">
                    <mxGeometry y="88" width="210" height="72" as="geometry"/>
                </mxCell>
                <mxCell id="71" value="" style="endArrow=open;endSize=12;dashed=1;html=1;exitX=0;exitY=0.25;exitDx=0;exitDy=0;entryX=0.5;entryY=1;entryDx=0;entryDy=0;" edge="1" parent="1" source="65" target="59">
                    <mxGeometry width="160" relative="1" as="geometry">
                        <mxPoint x="90" y="450" as="sourcePoint"/>
                        <mxPoint x="250" y="450" as="targetPoint"/>
                    </mxGeometry>
                </mxCell>
                <mxCell id="72" value="" style="endArrow=open;endSize=12;dashed=1;html=1;exitX=0;exitY=0.75;exitDx=0;exitDy=0;entryX=1;entryY=0.5;entryDx=0;entryDy=0;" edge="1" parent="1" source="65" target="21">
                    <mxGeometry width="160" relative="1" as="geometry">
                        <mxPoint x="290" y="760" as="sourcePoint"/>
                        <mxPoint x="450" y="760" as="targetPoint"/>
                    </mxGeometry>
                </mxCell>
            </root>
        </mxGraphModel>
    </diagram>
</mxfile>
